<svg width="734" height="734" viewBox="0 0 734 734" fill="none" xmlns="http://www.w3.org/2000/svg">
<rect x="0.5" y="0.5" width="733" height="733" rx="149.5" fill="#2568E7" stroke="black"/>
<rect x="194" y="135" width="104" height="104" rx="52" fill="white"/>
<rect x="194" y="135" width="104" height="104" fill="white"/>
<rect x="194" y="255" width="104" height="104" rx="52" fill="white"/>
<rect x="194" y="255" width="104" height="104" fill="white"/>
<rect x="194" y="375" width="104" height="104" rx="52" fill="white"/>
<rect x="194" y="375" width="104" height="104" fill="white"/>
<rect x="314" y="375" width="104" height="104" rx="52" fill="white"/>
<rect x="314" y="375" width="104" height="104" fill="white"/>
<rect x="314" y="135" width="104" height="104" rx="52" fill="white"/>
<rect x="314" y="135" width="104" height="104" fill="white"/>
<rect x="434" y="495" width="104" height="104" rx="52" fill="white"/>
<rect x="434" y="495" width="104" height="104" fill="white"/>
<rect x="434" y="255" width="104" height="104" rx="52" fill="white"/>
<rect x="434" y="255" width="104" height="104" fill="white"/>
<rect x="194" y="495" width="104" height="104" rx="52" fill="white"/>
<rect x="194" y="495" width="104" height="104" fill="white"/>
</svg>
