<svg width="344" height="464" viewBox="0 0 344 464" fill="none" xmlns="http://www.w3.org/2000/svg">
<rect width="104" height="104" rx="52" fill="white"/>
<rect width="104" height="104" fill="white"/>
<rect y="120" width="104" height="104" rx="52" fill="white"/>
<rect y="120" width="104" height="104" fill="white"/>
<rect y="240" width="104" height="104" rx="52" fill="white"/>
<rect y="240" width="104" height="104" fill="white"/>
<rect x="120" y="240" width="104" height="104" rx="52" fill="white"/>
<rect x="120" y="240" width="104" height="104" fill="white"/>
<rect x="120" width="104" height="104" rx="52" fill="white"/>
<rect x="120" width="104" height="104" fill="white"/>
<rect x="240" y="360" width="104" height="104" rx="52" fill="white"/>
<rect x="240" y="360" width="104" height="104" fill="white"/>
<rect x="240" y="120" width="104" height="104" rx="52" fill="white"/>
<rect x="240" y="120" width="104" height="104" fill="white"/>
<rect y="360" width="104" height="104" rx="52" fill="white"/>
<rect y="360" width="104" height="104" fill="white"/>
</svg>
